<svg width="338" height="243" viewBox="0 0 338 243" fill="none" xmlns="http://www.w3.org/2000/svg">
<g filter="url(#filter0_d)">
<path d="M232 101.523C232 86.4225 213.085 72.1117 184.086 63.2371C190.778 33.6862 187.804 10.1756 174.698 2.64843C171.677 0.882809 168.145 0.046463 164.288 0.046463V10.4079C166.426 10.4079 168.145 10.826 169.586 11.6159C175.906 15.2401 178.648 29.0398 176.51 46.789C175.999 51.1566 175.163 55.7565 174.14 60.4493C165.031 58.219 155.086 56.4999 144.629 55.3848C138.355 46.789 131.849 38.9831 125.296 32.1529C140.447 18.0744 154.668 10.3614 164.334 10.3614V0C151.554 0 134.823 9.10689 117.907 24.9046C100.991 9.19982 84.2601 0.185856 71.4798 0.185856V10.5473C81.0999 10.5473 95.3673 18.2138 110.518 32.1994C104.011 39.0295 97.5051 46.789 91.3241 55.3848C80.821 56.4999 70.8757 58.219 61.7668 60.4958C60.6979 55.8494 59.9079 51.3424 59.3502 47.0213C57.1659 29.2721 59.8614 15.4724 66.1353 11.8018C67.5296 10.9654 69.342 10.5937 71.4798 10.5937V0.232319C67.576 0.232319 64.044 1.06866 60.9768 2.83429C47.9177 10.3614 44.9898 33.8256 51.7285 63.2836C22.8219 72.2046 4 86.469 4 101.523C4 116.624 22.9148 130.935 51.9144 139.809C45.2222 169.36 48.1965 192.871 61.3021 200.398C64.3229 202.164 67.8549 203 71.7587 203C84.5389 203 101.269 193.893 118.186 178.095C135.102 193.8 151.833 202.814 164.613 202.814C168.517 202.814 172.049 201.978 175.116 200.212C188.175 192.685 191.103 169.221 184.364 139.763C213.178 130.888 232 116.577 232 101.523ZM171.491 70.5319C169.772 76.5257 167.634 82.7054 165.217 88.8851C163.312 85.168 161.313 81.4509 159.129 77.7338C156.991 74.0167 154.714 70.3925 152.437 66.8613C159.036 67.837 165.403 69.0451 171.491 70.5319ZM150.206 120.016C146.581 126.288 142.863 132.236 139.006 137.765C132.082 138.369 125.064 138.694 118 138.694C110.982 138.694 103.965 138.369 97.0868 137.811C93.2295 132.282 89.4651 126.381 85.8402 120.155C82.3082 114.068 79.1015 107.889 76.1737 101.663C79.055 95.4365 82.3082 89.2103 85.7937 83.1236C89.4187 76.851 93.1366 70.9036 96.9939 65.3745C103.918 64.7704 110.936 64.4452 118 64.4452C125.018 64.4452 132.035 64.7704 138.913 65.328C142.77 70.8572 146.535 76.7581 150.16 82.9842C153.692 89.071 156.898 95.2506 159.826 101.477C156.898 107.703 153.692 113.929 150.206 120.016ZM165.217 113.975C167.727 120.202 169.865 126.428 171.631 132.468C165.543 133.955 159.129 135.209 152.483 136.185C154.761 132.607 157.038 128.937 159.176 125.173C161.314 121.456 163.312 117.693 165.217 113.975ZM118.093 163.552C113.771 159.092 109.449 154.12 105.173 148.684C109.356 148.87 113.631 149.009 117.954 149.009C122.322 149.009 126.644 148.916 130.873 148.684C126.691 154.12 122.369 159.092 118.093 163.552ZM83.5165 136.185C76.9172 135.209 70.5503 134.001 64.4623 132.515C66.1818 126.521 68.3196 120.341 70.7362 114.161C72.6417 117.878 74.64 121.596 76.8243 125.313C79.0086 129.03 81.2393 132.654 83.5165 136.185ZM117.861 39.4942C122.183 43.9547 126.505 48.9263 130.78 54.3626C126.598 54.1767 122.322 54.0373 118 54.0373C113.631 54.0373 109.309 54.1302 105.08 54.3626C109.263 48.9263 113.585 43.9547 117.861 39.4942ZM83.47 66.8613C81.1928 70.439 78.9156 74.1096 76.7778 77.8732C74.64 81.5903 72.6417 85.3074 70.7362 89.0245C68.2267 82.7984 66.0889 76.5722 64.3229 70.5319C70.4109 69.0916 76.8243 67.837 83.47 66.8613ZM41.4113 125.034C24.9596 118.018 14.3172 108.818 14.3172 101.523C14.3172 94.2284 24.9596 84.9821 41.4113 78.0126C45.4081 76.2934 49.7766 74.7601 54.2846 73.3198C56.9336 82.4266 60.4191 91.9052 64.7411 101.616C60.4656 111.281 57.0265 120.713 54.424 129.773C49.8231 128.333 45.4546 126.753 41.4113 125.034ZM66.4142 191.431C60.0938 187.806 57.3518 174.007 59.4896 156.257C60.0008 151.89 60.8374 147.29 61.8598 142.597C70.9686 144.827 80.914 146.547 91.3706 147.662C97.6445 156.257 104.151 164.063 110.704 170.894C95.5532 184.972 81.3322 192.685 71.6657 192.685C69.5744 192.639 67.8084 192.22 66.4142 191.431ZM176.65 156.025C178.834 173.774 176.139 187.574 169.865 191.245C168.47 192.081 166.658 192.453 164.52 192.453C154.9 192.453 140.633 184.786 125.482 170.801C131.989 163.97 138.495 156.211 144.676 147.615C155.179 146.5 165.124 144.781 174.233 142.504C175.302 147.197 176.139 151.704 176.65 156.025ZM194.542 125.034C190.545 126.753 186.177 128.286 181.669 129.727C179.02 120.62 175.534 111.141 171.212 101.43C175.488 91.7658 178.927 82.3337 181.53 73.2733C186.13 74.7137 190.499 76.2934 194.589 78.0126C211.04 85.0286 221.683 94.2284 221.683 101.523C221.636 108.818 210.994 118.064 194.542 125.034Z" fill="#00C8FF"/>
<path d="M118 123C129.598 123 139 113.598 139 102C139 90.402 129.598 81 118 81C106.402 81 97 90.402 97 102C97 113.598 106.402 123 118 123Z" fill="#00C8FF"/>
<path d="M100.368 103.842C100.368 102.052 101.132 89.921 95.7632 95.2895C94.3604 96.6923 93.8556 98.2788 92.693 99.6998C91.6475 100.978 90.7081 102.561 89.2086 103.379C89.5078 106.222 87.1097 108.354 89.2086 109C94 112 95.1075 118.622 99.3938 123.238C103.042 127.167 103.936 133.015 108.702 136.079C109.556 136.628 113.088 140.055 113.088 140.904C113.088 142.783 113.784 146.243 112.747 147.799C111.73 149.324 112.649 153.911 112.649 155.938C112.649 158.738 112.118 162.104 112.868 164.807C114.268 169.846 118.74 171.298 121.762 174.992C123.891 177.594 125.214 180.281 128 182.448C130.725 184.568 133.082 187.118 135.895 189.149C139.246 191.569 142.468 193.7 145.349 196.581C147.523 198.755 150.555 200.595 153 202.429C155.849 204.565 157.841 207.187 160.554 209.544C165.103 213.497 170.071 216.917 174.296 221.142C176.56 223.406 179.639 225.259 182.142 227.307C183.998 228.825 186.049 229.628 188.429 229.719C190.444 229.797 192.652 230.49 194.667 230.938C197.866 231.649 201.279 231.474 204.559 231.474C207.63 231.474 210.43 231.977 213.088 230.353C215.025 229.169 217.045 226.565 218.57 224.87C220.165 223.098 221.831 221.414 223.517 219.729C225.028 218.218 226.568 216.188 228.439 215.148C230.968 213.743 229.736 209.54 230.412 207.375C231.034 205.384 230.427 202.864 231.289 200.967C231.734 199.988 231.252 198.928 231.533 197.945C231.862 196.793 232.386 198.698 232.386 199.018" stroke="black" stroke-width="6" stroke-linecap="round" stroke-linejoin="round"/>
<path d="M232.386 199.018C243.795 199.018 254.229 204.281 265.719 204.281C274.886 204.281 283.784 202.526 292.937 202.526C297.457 202.526 301.623 204.163 306.07 204.719C308.236 204.99 311.077 205.239 313.088 206.133C316.907 207.83 320.522 205.752 323.833 204.281C328.05 202.407 330.193 199.421 330.193 194.729C330.193 190.345 328.955 186.874 327.366 182.789C326.262 179.95 324.95 176.69 323.614 174.018" stroke="black" stroke-width="6" stroke-linecap="round" stroke-linejoin="round"/>
<path d="M309.579 146.386C312.252 150.062 314.318 154.409 316.816 158.252C318.66 161.09 320.591 164.094 321.421 167.414C322.279 170.844 322.812 174.949 324.272 178.16C326.261 182.535 328 188.006 328 192.877C328 197.027 326.902 203.075 322.737 205.158" stroke="black" stroke-width="6" stroke-linecap="round" stroke-linejoin="round"/>
<path d="M309.579 146.386C300.32 150.262 305.393 161.385 302.805 168.779C301.406 172.775 301.484 177.272 299.394 181.035C297.973 183.592 290.965 182.351 288.575 182.351C284.725 182.351 280.875 182.351 277.025 182.351C273.151 182.351 268.416 180.182 265.086 178.184C257.753 173.785 248.955 174.946 240.939 173.165C239.659 172.88 239.184 170.15 238.965 168.998C238.635 167.268 237.781 167.01 236.309 166.366C234.411 165.536 232.372 164.793 230.851 163.272C230.065 162.486 229.021 161.388 227.903 161.298C224.198 161.002 220.353 160.473 216.621 160.007C215.26 159.837 210.851 158.702 209.676 159.641C206.754 161.98 204.804 165.248 203.024 168.511C202.069 170.262 200.429 171.538 199.272 173.14C198.315 174.466 197.365 177.249 195.982 178.062C193.972 179.245 192.836 181.742 191.06 183.228C189.177 184.805 187.38 186.568 185.651 188.296C183.242 190.705 181.568 193.228 179.754 195.947" stroke="black" stroke-width="6" stroke-linecap="round" stroke-linejoin="round"/>
<path d="M211.333 159.105C211.429 154.224 213.9 149.887 214.379 145.095C214.626 142.622 214.591 140.198 215.5 137.833C217.06 133.776 218.007 130.381 220.739 126.868C224.434 122.117 229.487 117.64 235.359 115.879C241.298 114.097 246.567 111.054 252.22 108.667C255.294 107.369 257.918 105.816 261.138 104.914C264.178 104.063 267.956 103.794 270.763 102.283C273.653 100.727 276.025 97.8734 277.976 95.3138C279.312 93.5596 279.137 92.3289 279.974 90.4893C280.759 88.7605 280.254 85.3829 279.754 83.6667C278.652 79.8762 278.282 76.9314 275.368 74.0175C273.801 72.4498 273 72 272 70" stroke="black" stroke-width="6" stroke-linecap="round" stroke-linejoin="round"/>
<path d="M272.298 70.0702C272.298 66.2906 272.088 62.4433 272.298 58.6667C272.435 56.2074 278.002 53.6102 280.193 53.0624C283.864 52.1447 286.749 52.6348 290.281 53.7446C292.93 54.5774 295.723 57.969 297.639 59.885C299.163 61.4082 300.524 62.4656 301.684 64.271C304.212 68.2025 305.337 73.0234 308.604 76.5517C310.44 78.5338 311.938 80.7621 313.867 82.692C315.049 83.8739 316.357 84.5248 316.938 86.2008C318.131 89.6493 316.7 94.2288 315.183 97.2632C314.035 99.5591 311.91 100.333 309.481 100.333C305.632 100.333 303.017 99.8747 300.71 103.501C298.518 106.945 296.154 111.762 292.571 113.832C287.423 116.807 283.074 121.715 279.316 126.308C275.91 130.471 270.935 132.531 266.06 134.446C263.467 135.465 261.119 137.099 258.458 138.053C255.981 138.941 253.787 139.355 251.246 139.904C247.922 140.623 242.986 141.734 241.938 145.509C241.238 148.028 240.281 150.225 240.281 152.867C240.281 155.824 240.281 158.78 240.281 161.737C240.281 165.099 240.281 168.462 240.281 171.825" stroke="black" stroke-width="6" stroke-linecap="round" stroke-linejoin="round"/>
<path d="M201.246 169.632C201.246 173.612 203.077 175.47 204.852 178.842C206.35 181.689 207.623 185.72 210.359 187.614C213.071 189.491 215.962 190.592 219.228 191.22C221.085 191.577 223.34 192.877 225.149 192.877C226.066 192.877 227.184 193.444 228 193.852C228.93 194.317 229.971 193.924 230.851 194.412C232.355 195.248 231.382 193.259 231.168 192.536C230.883 191.575 231.07 190.331 231.07 189.344C231.07 183.089 233.994 174.553 239.403 170.947" stroke="black" stroke-width="6" stroke-linecap="round" stroke-linejoin="round"/>
<path d="M253.877 175.772C252.492 178.488 250.603 180.844 250.368 184.008C250.163 186.782 251.238 185.064 252.903 186.396C254.674 187.813 256.684 188.182 257.288 190.782C258.022 193.937 260.297 196.785 261.333 199.895" stroke="black" stroke-width="6" stroke-linecap="round" stroke-linejoin="round"/>
<path d="M216.596 136.737C219.033 139.819 221.762 143.125 225.125 145.265C226.9 146.395 228.951 146.854 230.729 147.897C233.076 149.273 240.901 151.343 242.011 147.458C242.33 146.341 242.307 143.827 241.158 143.218C239.682 142.437 237.843 143.101 236.236 142.78C234.553 142.443 232.758 141.864 231.509 140.684C229.171 138.477 228 136.995 228 133.642C228 130.94 229.316 131.172 231.923 131.498C234.383 131.806 236.887 135.396 238.867 136.639C240.518 137.676 242.553 140.239 244.447 140.66C246.261 141.063 248.771 141.671 250.71 141.025C253.366 140.14 248.971 138.171 247.834 137.078C243.856 133.253 244.667 128.555 244.667 123.36C244.667 120.17 244.475 115.561 247.737 113.93" stroke="black" stroke-width="6" stroke-linecap="round" stroke-linejoin="round"/>
<path d="M257.386 108.667C257.345 110.702 256.509 112.441 256.509 114.368C256.509 116.07 257.561 116.453 258.263 117.682C259.379 119.636 262.258 120.932 264.404 121.483C266.996 122.15 269.67 123.447 272.128 123.993C274.078 124.426 276.069 126.211 278 126.211" stroke="black" stroke-width="6" stroke-linecap="round" stroke-linejoin="round"/>
<path d="M197.298 80.5965C199.385 80.5965 202.492 80.0597 204.316 81.1326C205.621 81.9002 207.852 83.7009 208.702 84.7632C209.496 85.7562 211.858 85.9283 212.868 86.7368C214.693 88.1967 214.404 90.0481 214.404 92.1949C214.404 98.3312 215.446 105.107 212.868 110.835C211.413 114.069 209.924 117.295 208.507 120.533C208.141 121.369 207.745 126.164 206.947 126.211C203.434 126.417 198.325 127.888 195.982 130.816C195.47 131.456 194.294 131.659 193.887 132.351C193.472 133.057 192.953 133.692 192.23 134.105C190.16 135.288 187.566 136.126 185.212 134.982C181.001 132.937 174.666 131.11 170.544 134.349C166.872 137.234 163.735 140.246 158.702 140.246" stroke="black" stroke-width="6" stroke-linecap="round" stroke-linejoin="round"/>
<path d="M186.772 158.228C192.874 158.228 198.057 157.926 203.439 155.158C207.156 153.246 209.677 149.537 213.088 147.263" stroke="black" stroke-width="6" stroke-linecap="round" stroke-linejoin="round"/>
<path d="M187.211 158.667C188.002 162.362 189.103 166.547 190.939 169.851C192.588 172.82 194.202 174 196.86 175.772" stroke="black" stroke-width="6" stroke-linecap="round" stroke-linejoin="round"/>
<path d="M208.702 125.333C208.702 119.633 210.382 115.137 212.405 109.934C213.805 106.336 214.842 103.912 214.842 100.09C214.842 97.0544 214.62 94.1428 214.404 91.2203C214.118 87.3703 210.971 83.8506 207.386 82.5702C203.615 81.2236 200.025 81.4737 195.982 81.4737" stroke="black" stroke-width="6" stroke-linecap="round" stroke-linejoin="round"/>
<path d="M195.982 81.4737C195.982 78.2258 198.736 74.9944 202.123 74.8947C204 74.8395 205.878 74.4561 207.825 74.4561C209.467 74.4561 211.772 75.0962 211.772 72.9211C211.772 68.3446 207.609 65.3171 206.972 60.8596C206.7 58.9572 206.391 57.1626 206.509 55.1579C206.582 53.9147 210.024 55.0222 210.554 55.499C212.717 57.4457 214.053 60.7509 215.817 62.9552C216.577 63.9057 217.474 67.3306 217.474 65.4162C217.474 61.7188 217.035 58.0044 217.035 54.2807C217.035 51.5098 217.377 50.7719 220.105 50.7719C221.705 50.7719 220.982 54.8254 220.982 56.0351C220.982 58.1956 220.982 60.3561 220.982 62.5166C220.982 63.6205 220.572 64.6553 221.445 63.2719C222.255 61.9893 223.18 60.8536 224.053 59.6413C225.136 58.1371 229.704 50.8788 231.411 54.7193C232.014 56.0747 231.735 59.5351 230.875 60.6404C230.192 61.5191 228.162 65.7794 228.463 64.1248C228.756 62.5153 230.49 61.4116 231.606 60.5185C232.251 60.0023 235.456 60.208 235.456 61.0789C235.456 65.1024 231.767 67.8574 230.096 71.386C228.491 74.7729 228.877 78.9405 228.877 82.692C228.877 86.1139 228.404 89.3964 228.902 92.8772C229.535 97.3114 231.509 101.665 231.509 106.254C231.509 108.25 232.674 117.952 231.07 118.754" stroke="black" stroke-width="6" stroke-linecap="round" stroke-linejoin="round"/>
<path d="M213.526 87.1754C217.294 87.1754 222.567 87.5813 225.807 85.4211" stroke="black" stroke-width="6" stroke-linecap="round" stroke-linejoin="round"/>
<path d="M215.719 96.8246C218.998 96.8246 223.81 97.3844 226.684 95.9474" stroke="black" stroke-width="6" stroke-linecap="round" stroke-linejoin="round"/>
<path d="M136.333 107.789C140.016 106.224 144.824 103.62 149.053 105.499C150.846 106.296 152.862 106.531 154.218 107.887C155.565 109.233 154.589 111.53 155.632 112.833C158.363 116.248 159.14 121.847 159.14 126.211C159.14 128.818 159.51 131.761 159.116 134.325C158.947 135.424 158.544 140.763 157.825 141.123" stroke="black" stroke-width="6" stroke-linecap="round" stroke-linejoin="round"/>
<path d="M132.825 144.632C132.717 139.232 129.605 134.092 128.439 128.842C127.952 126.652 126.645 124.825 125.588 122.921C124.633 121.202 123.024 120.339 121.86 118.657C118.888 114.365 113.366 113.769 109.798 110.202C108.291 108.695 106.208 108.042 104.559 106.693C103.056 105.463 100.137 104.462 99.4912 102.526" stroke="black" stroke-width="6" stroke-linecap="round" stroke-linejoin="round"/>
<path d="M99.4912 102.526C94.9786 102.526 90.7193 106.296 90.7193 110.86" stroke="black" stroke-width="6" stroke-linecap="round" stroke-linejoin="round"/>
<path d="M93.7895 115.246C94.381 112.551 95.6313 110.628 97.2739 108.472C98.7308 106.56 99.0841 106.756 101.246 106.035" stroke="black" stroke-width="6" stroke-linecap="round" stroke-linejoin="round"/>
<path d="M139.404 136.298C142.581 140.365 146.005 140.246 150.904 140.246C152.501 140.246 153.601 139.45 154.657 138.394C155.389 137.662 155.557 136.336 156.509 135.86" stroke="black" stroke-width="6" stroke-linecap="round" stroke-linejoin="round"/>
<path d="M182.825 143.754C181.814 149.258 175.232 158.092 180.193 163.053" stroke="black" stroke-width="6" stroke-linecap="round" stroke-linejoin="round"/>
<path d="M138.526 154.281C140.104 156.363 141.393 158.259 142.474 160.421" stroke="black" stroke-width="6" stroke-linecap="round" stroke-linejoin="round"/>
<path d="M207.825 231.035C211.532 228.227 211.473 225.677 213.185 221.825C213.508 221.098 213.702 218.702 214.184 218.316C215.207 217.497 216.689 215.404 217.474 214.271C219.741 210.996 222.838 207.204 223.955 203.404C224.661 201.004 225.54 197.856 226.879 195.752C227.51 194.761 229.436 194.632 230.632 194.632" stroke="black" stroke-width="6" stroke-linecap="round" stroke-linejoin="round"/>
<path d="M221.421 209.105C222.775 210.787 224.737 213.833 226.684 214.807" stroke="black" stroke-width="6" stroke-linecap="round" stroke-linejoin="round"/>
<path d="M261.772 203.842C261.565 202.921 261.305 202.031 260.895 201.211" stroke="black" stroke-width="6" stroke-linecap="round" stroke-linejoin="round"/>
<path d="M303.439 151.649C303.439 157.127 302.803 163.021 304.316 168.316C305.67 173.054 308.239 177.533 308.677 182.57C309.142 187.917 308.754 193.25 309.676 198.579C310.157 201.358 311.685 206.474 315.281 206.474" stroke="black" stroke-width="6" stroke-linecap="round" stroke-linejoin="round"/>
<path d="M272.951 71.3868C274.811 73.2469 276.579 75.2806 278.701 76.8525C279.339 77.3257 280.169 77.6939 280.658 78.3228C281.33 79.1867 282.025 80.0003 282.666 80.8782C285.016 84.0996 287.321 87.4231 290.109 90.2885C293.128 93.3919 297.548 94.8072 300.553 97.8127C301.362 98.6215 302.736 99.3669 303.798 99.7799C304.565 100.078 306.52 100.56 306.901 101.321" stroke="black" stroke-width="6" stroke-linecap="round" stroke-linejoin="round"/>
</g>
<defs>
<filter id="filter0_d" x="0" y="0" width="337.193" height="242.547" filterUnits="userSpaceOnUse" color-interpolation-filters="sRGB">
<feFlood flood-opacity="0" result="BackgroundImageFix"/>
<feColorMatrix in="SourceAlpha" type="matrix" values="0 0 0 0 0 0 0 0 0 0 0 0 0 0 0 0 0 0 127 0" result="hardAlpha"/>
<feOffset dy="4"/>
<feGaussianBlur stdDeviation="2"/>
<feComposite in2="hardAlpha" operator="out"/>
<feColorMatrix type="matrix" values="0 0 0 0 1 0 0 0 0 1 0 0 0 0 1 0 0 0 0.25 0"/>
<feBlend mode="normal" in2="BackgroundImageFix" result="effect1_dropShadow"/>
<feBlend mode="normal" in="SourceGraphic" in2="effect1_dropShadow" result="shape"/>
</filter>
</defs>
</svg>
