<svg width="317" height="55" viewBox="0 0 317 55" fill="none" xmlns="http://www.w3.org/2000/svg">
<path d="M3 38.4737C10.966 38.4093 18.6568 37.8315 26.429 36.8425C29.2749 36.4804 28.062 36.5353 25.8863 36.5794C21.246 36.6736 17.2386 37.5485 12.9053 38.421C12.4505 38.5126 6.69399 39.6998 7.34206 39.7891C13.1304 40.5866 21.0693 39.6234 26.6552 38.9735C37.4795 37.7143 47.939 35.3996 57.9994 32.7909C59.2327 32.4711 66.1915 31.0418 66.6383 30.0021C66.6744 29.9182 57.8181 32.3766 57.2757 32.5804C53.4736 34.0095 49.6953 35.4789 45.9683 36.974C44.2899 37.6474 43.1795 38.0779 46.1492 38.0001C56.5387 37.7279 66.9599 35.9962 76.8602 34.2642C82.5425 33.2701 88.0441 31.7926 93.8214 31.0018C95.0575 30.8327 85.2933 31.6233 84.4136 31.7385C76.2296 32.8107 68.2507 34.3747 60.3514 36.0006C58.7883 36.3223 51.5675 37.3932 57.4567 37.5002C71.5895 37.7571 85.7864 37.5265 99.9274 37.5265C103.112 37.5265 93.6323 38.1339 90.5649 38.6315C81.5055 40.1011 73.0096 42.6571 64.7839 45.2614C64.5096 45.3483 55.5107 48.0471 56.2807 48.6816C58.5808 50.577 79.5731 45.5359 81.4285 45.1299C95.9916 41.9432 109.998 37.9483 124.397 34.5273C128.498 33.5529 137.233 32.6907 140.544 30.7651C143.836 28.8499 131.928 32.8224 127.653 33.8959C122.277 35.2459 116.987 36.6602 111.687 38.1053C107.993 39.1127 117.329 38.4737 117.341 38.4737C129.331 38.4737 141.277 38.5451 153.208 37.737C159.883 37.2849 166.603 36.8106 173.245 36.2111C175.217 36.033 169.511 37.036 167.682 37.5002C160.113 39.4203 152.895 41.7539 145.655 44.0512C144.078 44.5514 139.455 45.5299 138.78 46.7084C138.615 46.9953 139.753 46.9597 140.272 46.9715C142.075 47.0127 147.85 46.9978 148.911 46.9978C160.011 46.9978 170.775 46.7017 181.748 45.6824C187.623 45.1367 193.462 44.528 199.252 43.7355C199.308 43.7278 193.56 44.1654 192.241 44.3669C187.372 45.1112 182.791 46.5083 178.356 47.866C177.789 48.0397 176.329 48.4431 176.909 48.6027C180.043 49.4664 187.963 48.3493 190.613 48.0502C205.595 46.3596 220.035 43.1926 234.396 40.2627C239.519 39.2173 245.087 37.5679 250.407 36.8951C255.479 36.2537 241.66 40.1477 237.245 41.736C232.919 43.2924 228.391 44.7648 224.174 46.419C221.873 47.3218 229.775 46.896 232.496 46.5769C243.699 45.2631 254.443 42.9882 265.061 40.5784C269.143 39.6522 273.206 38.5814 277.5 38.0264C281.027 37.5705 270.359 38.7162 266.871 39.2629C259.652 40.3942 252.458 41.7656 245.522 43.3935C243.788 43.8005 238.87 44.6425 240.637 44.9983C245.514 45.9802 253.544 45.006 258.503 44.8405C264.729 44.6327 270.752 44.2419 276.821 43.4198C282.923 42.5933 264.107 44.782 259.001 46.8926C256.06 48.108 261.924 47.8763 262.664 47.866C270.84 47.7528 278.915 46.9703 286.953 46.1559C289.414 45.9065 296.698 44.8682 294.28 45.2351C289.009 46.0349 284.08 47.6281 279.354 49.1552C276.843 49.9665 273.512 50.7115 271.439 51.9177C270.858 52.2554 280.011 51.4467 280.259 51.4178C286.707 50.6641 293.092 49.7143 299.436 48.7079C303.407 48.078 296.839 48.5734 296.27 48.629C293.265 48.923 289.995 49.5284 287.405 50.497C286.85 50.7044 294.323 49.8906 295.275 49.734C300.272 48.9117 304.866 47.5909 309.748 46.6032C311.393 46.2705 312.899 46.2178 314 45.5771" stroke="black" stroke-width="6" stroke-linecap="round"/>
</svg>
